/* XPM */
static char * Rotation_gauche_bleu_65_61_xpm[] = {
"65 61 390 2",
"  	c #000000",
". 	c #010101",
"+ 	c #000103",
"@ 	c #000201",
"# 	c #010302",
"$ 	c #010300",
"% 	c #000302",
"& 	c #000403",
"* 	c #000501",
"= 	c #000400",
"- 	c #000002",
"; 	c #010000",
"> 	c #010002",
", 	c #000100",
"' 	c #020100",
") 	c #020003",
"! 	c #010100",
"~ 	c #000200",
"{ 	c #010103",
"] 	c #020204",
"^ 	c #020001",
"/ 	c #020308",
"( 	c #010F29",
"_ 	c #011E4A",
": 	c #012A62",
"< 	c #013076",
"[ 	c #023380",
"} 	c #013686",
"| 	c #023682",
"1 	c #033481",
"2 	c #02327C",
"3 	c #012D6C",
"4 	c #02255B",
"5 	c #02183D",
"6 	c #010A19",
"7 	c #010200",
"8 	c #000004",
"9 	c #000B1D",
"0 	c #022255",
"a 	c #03337F",
"b 	c #043C93",
"c 	c #023F98",
"d 	c #043F9B",
"e 	c #04419C",
"f 	c #06419D",
"g 	c #05409C",
"h 	c #03409B",
"i 	c #043F99",
"j 	c #053E98",
"k 	c #043D97",
"l 	c #033B92",
"m 	c #04388B",
"n 	c #042B6C",
"o 	c #01193D",
"p 	c #010510",
"q 	c #000102",
"r 	c #030000",
"s 	c #000D20",
"t 	c #02275E",
"u 	c #033B8E",
"v 	c #033E9A",
"w 	c #05429F",
"x 	c #0745A8",
"y 	c #0747B1",
"z 	c #0548B0",
"A 	c #0645AC",
"B 	c #0842A6",
"C 	c #0642A4",
"D 	c #0443A4",
"E 	c #0444A5",
"F 	c #0646AA",
"G 	c #0647AD",
"H 	c #0748AC",
"I 	c #0544A3",
"J 	c #03409D",
"K 	c #013F94",
"L 	c #043A92",
"M 	c #01337C",
"N 	c #001D45",
"O 	c #000509",
"P 	c #020005",
"Q 	c #020107",
"R 	c #01398E",
"S 	c #0642A2",
"T 	c #0548B1",
"U 	c #013A8B",
"V 	c #033783",
"W 	c #043480",
"X 	c #00347D",
"Y 	c #02307B",
"Z 	c #002F77",
"` 	c #033480",
" .	c #05398D",
"..	c #043F9D",
"+.	c #0547A8",
"@.	c #0846AD",
"#.	c #03429F",
"$.	c #043D94",
"%.	c #033A8D",
"&.	c #033074",
"*.	c #00122A",
"=.	c #010004",
"-.	c #000A16",
";.	c #012E72",
">.	c #043D96",
",.	c #0448AB",
"'.	c #043C91",
").	c #032459",
"!.	c #00163B",
"~.	c #020E26",
"{.	c #000712",
"].	c #000610",
"^.	c #01050E",
"/.	c #000B1B",
"(.	c #00122D",
"_.	c #021A46",
":.	c #022866",
"<.	c #023681",
"[.	c #0544A5",
"}.	c #0545A7",
"|.	c #083F9C",
"1.	c #033A8C",
"2.	c #000306",
"3.	c #050D24",
"4.	c #013781",
"5.	c #073F9C",
"6.	c #0543A6",
"7.	c #0449B1",
"8.	c #003686",
"9.	c #032967",
"0.	c #031637",
"a.	c #00050B",
"b.	c #000C1C",
"c.	c #031F4F",
"d.	c #02337F",
"e.	c #073E9B",
"f.	c #0544AB",
"g.	c #003C92",
"h.	c #01265D",
"i.	c #010207",
"j.	c #000F29",
"k.	c #023689",
"l.	c #014199",
"m.	c #0545A6",
"n.	c #0549AE",
"o.	c #063D97",
"p.	c #043077",
"q.	c #031636",
"r.	c #000207",
"s.	c #000912",
"t.	c #002355",
"u.	c #063C96",
"v.	c #0443A2",
"w.	c #012861",
"x.	c #000308",
"y.	c #020919",
"z.	c #063F98",
"A.	c #0644A7",
"B.	c #0445A9",
"C.	c #023B92",
"D.	c #032761",
"E.	c #000813",
"F.	c #00132C",
"G.	c #023787",
"H.	c #0442A5",
"I.	c #053E97",
"J.	c #02398C",
"K.	c #00275A",
"L.	c #000209",
"M.	c #023A91",
"N.	c #001F4D",
"O.	c #010A1B",
"P.	c #02347D",
"Q.	c #0343A4",
"R.	c #063C94",
"S.	c #031C45",
"T.	c #012255",
"U.	c #023E96",
"V.	c #0544A1",
"W.	c #023A8D",
"X.	c #041E4F",
"Y.	c #033280",
"Z.	c #000F23",
"`.	c #023E94",
" +	c #063E9D",
".+	c #043A90",
"++	c #00285C",
"@+	c #0345A5",
"#+	c #08409F",
"$+	c #013A89",
"%+	c #042D6D",
"&+	c #020106",
"*+	c #032C6E",
"=+	c #033E98",
"-+	c #023B95",
";+	c #022D71",
">+	c #00060E",
",+	c #040000",
"'+	c #001532",
")+	c #0440A0",
"!+	c #063E95",
"~+	c #033884",
"{+	c #02193B",
"]+	c #01112A",
"^+	c #0643A0",
"/+	c #033685",
"(+	c #00112D",
"_+	c #012863",
":+	c #0444A8",
"<+	c #022F70",
"[+	c #030409",
"}+	c #032968",
"|+	c #053D9A",
"1+	c #0549AC",
"2+	c #020B1A",
"3+	c #003D8E",
"4+	c #0743A5",
"5+	c #053D94",
"6+	c #001330",
"7+	c #010916",
"8+	c #00398A",
"9+	c #06419F",
"0+	c #0646A8",
"a+	c #013581",
"b+	c #00102A",
"c+	c #02255F",
"d+	c #063F99",
"e+	c #013888",
"f+	c #03173A",
"g+	c #033B90",
"h+	c #0844A6",
"i+	c #013D95",
"j+	c #032A6D",
"k+	c #010204",
"l+	c #020E24",
"m+	c #073F9E",
"n+	c #02398B",
"o+	c #003277",
"p+	c #01060C",
"q+	c #053683",
"r+	c #001D47",
"s+	c #000104",
"t+	c #000408",
"u+	c #00337E",
"v+	c #0640A1",
"w+	c #05398C",
"x+	c #003480",
"y+	c #011128",
"z+	c #023C90",
"A+	c #073B91",
"B+	c #03317C",
"C+	c #013483",
"D+	c #001B40",
"E+	c #011D45",
"F+	c #011E48",
"G+	c #03204C",
"H+	c #013580",
"I+	c #06398C",
"J+	c #053587",
"K+	c #003279",
"L+	c #001E4A",
"M+	c #021A40",
"N+	c #031B49",
"O+	c #000E23",
"P+	c #021C3F",
"Q+	c #04419E",
"R+	c #012150",
"S+	c #001B46",
"T+	c #033687",
"U+	c #033888",
"V+	c #04378A",
"W+	c #05388B",
"X+	c #022F73",
"Y+	c #010818",
"Z+	c #043584",
"`+	c #022662",
" @	c #001F48",
".@	c #023586",
"+@	c #043786",
"@@	c #073B8F",
"#@	c #063D90",
"$@	c #032F76",
"%@	c #000C22",
"&@	c #032A6B",
"*@	c #022358",
"=@	c #023A87",
"-@	c #083B8E",
";@	c #043582",
">@	c #03327A",
",@	c #000E28",
"'@	c #020D1F",
")@	c #01409D",
"!@	c #032C6C",
"~@	c #063786",
"{@	c #03357E",
"]@	c #001534",
"^@	c #020F22",
"/@	c #0241A0",
"(@	c #053C8F",
"_@	c #000612",
":@	c #022E6B",
"<@	c #021B43",
"[@	c #02122B",
"}@	c #043B8E",
"|@	c #022964",
"1@	c #002F75",
"2@	c #021C41",
"3@	c #02419E",
"4@	c #063A8E",
"5@	c #053581",
"6@	c #010C1E",
"7@	c #00030A",
"8@	c #002760",
"9@	c #05409A",
"0@	c #063A90",
"a@	c #033483",
"b@	c #021B44",
"c@	c #000304",
"d@	c #053889",
"e@	c #001028",
"f@	c #001027",
"g@	c #043079",
"h@	c #012A6A",
"i@	c #033A8A",
"j@	c #01245E",
"k@	c #000A1C",
"l@	c #023D97",
"m@	c #073A95",
"n@	c #012D6E",
"o@	c #073789",
"p@	c #001739",
"q@	c #033282",
"r@	c #00081B",
"s@	c #033C95",
"t@	c #032B68",
"u@	c #003A8C",
"v@	c #06398A",
"w@	c #03337B",
"x@	c #001125",
"y@	c #030002",
"z@	c #000203",
"A@	c #000B17",
"B@	c #07378C",
"C@	c #053685",
"D@	c #031B47",
"E@	c #001333",
"F@	c #023B94",
"G@	c #043987",
"H@	c #002458",
"I@	c #010005",
"J@	c #000A13",
"K@	c #00265D",
"L@	c #033E9C",
"M@	c #043788",
"N@	c #012559",
"O@	c #040001",
"P@	c #000205",
"Q@	c #020B1C",
"R@	c #012353",
"S@	c #023989",
"T@	c #022454",
"U@	c #010206",
"V@	c #00132E",
"W@	c #021E4D",
"X@	c #012C70",
"Y@	c #033991",
"Z@	c #043985",
"`@	c #043381",
" #	c #03378A",
".#	c #043B8D",
"+#	c #000915",
"@#	c #063A8D",
"##	c #063992",
"$#	c #033C8D",
"%#	c #053887",
"&#	c #022D72",
"*#	c #021841",
"=#	c #010713",
"-#	c #033689",
";#	c #053682",
">#	c #043280",
",#	c #042862",
"'#	c #021736",
")#	c #00040D",
"!#	c #012B67",
"~#	c #002051",
"{#	c #021535",
"]#	c #000D1A",
"^#	c #030200",
"/#	c #040003",
"                                                                                        . .     + @ @ @ @ @ @ # $ $ $ % & & & % * ",
"                                                                                        . .     @ @ @ @ @ @ @ # $ $ # # % & & % & ",
"                                                                                                @ @ @ @ @ @ @ # $ # # # % & & % % ",
"                                                                                            . . . . @ @ @ @ @ @ # # # # # % % % & ",
"                                                                                            . . . . @ @ @ @ @ @ # # # # # # # % % ",
"                                                                                            . .   . . @ @ @ @ @ @ # # # # # # $ & ",
"                                                                                            . .   . . @ @ @ @ @ @ @ # # # # $ $ % ",
"                                                                                            . .   . . @ @ @ @ @ @ @ # # # $ $ $ = ",
"                                  -   - ; >       ,   '   . - -   ;   - ) ; , , - , - ;   -   @ .   ! @ ~ { @ ] @ @ @ @ # # # # $ ",
"                                    ! ; . , , > - ^ / ( _ : < [ } | 1 2 3 4 5 6           - !   7 . . 8 ~ ^ . , @ @ @ @ # # # # $ ",
"                                ; , , { , - >   9 0 a b c c d e f g h i j k l m n o p   8 ; - . q @ ~ - {     + @ @ @ @ @ # # # # ",
"                                -   , 8 r ! s t u v w x y z A B C D E F G H I J K L M N O ; , , ' ! @ ~   P @ @ @ @ @ @ @ @ @ @ # ",
"                                    ,   Q _ R g S T G i U V W X Y Z Y ` |  ...+.@.#.$.%.&.*.; =.- @ ^ = ~ ^ + , @ @ @ @ @ @ @ @ @ ",
"                                8 >   -.;.>.I ,.A '.| < ).!.~.{.].^.^./.(._.:.<.b [.}.|.l 1._ 2.  #     + ~ - . @ @ @ @ @ @ @ @ @ ",
"                                ,   3.4.5.6.7.f 8.9.0.a.; - , ^   , , . - r - b.c.d.e.f.E g.R h.i.; @ ~ ^ @   { @ @ @ @ @ @ @ @ @ ",
"                                , j.k.l.m.n.o.p.q.r.; -     ,     - ;   , . ; - , s.t.u.6.v.u.U w.x.  , . q 7 . @ @ @ @ @ @ # # @ ",
"                , r ; { , { , ; y.} z.A.B.C.D.E.                                ;   , F.G.H.v.I.J.K., . . ; @ @ . @ @ @ @ @ @ @ @ ",
"                - - + , -   { L.< v I S M.N.~ ;                                 ) @   - O.P.Q.C R.m S.  , , , ' . . @ @ @ @ @ @ @ ",
"                > , ,   ^ , ; T.U.e V.W.X.; - ;                                     , ^   -.Y.6.w L G.Z.+ ! ; ~ . . . @ @ @ @ @ @ ",
"                ;     , ; , ~.`. +6..+++;   - ,                                 , { , ; 8 , O.J.@+#+$+%+/ , &+, ! . . . @ @ @ @ @ ",
"                , - 8 - . , *+=+}.-+;+>+; @ ;                                   @   )   ; ,+- '+)+S !+~+{+; , . ! . . . . @ @ @ @ ",
"                - , - > ; ]+>.^+^+/+(+    ; , -                                 ;   ; . ~ - > ~ _+:+J m <+[+; @ . . . . . . @ @ . ",
"                ; @ - ;   }+|+1+u w.. ,   , ) ;                                   - ,   .   q ; 2+3+4+5+| 6+- , . . . . . . . @ . ",
"                ;   .   7+8+9+0+a+b+, ;                                         , - ; - ;     > - c+C d+e+h.; - . . . ! ! . . . @ ",
"                  ,   ! f+g+h+i+j+k+      . ,                                                     l+d m+n+o+p+;           @ @ @   ",
"                -   )   h.i+5.q+r+, s+r ,     >                                                   t+u+v+w+x+y+-             @ @ @ ",
"                ! ;   . < z+A+B+b.^ ,   -   r ,                                                 -   K.w A+C+D+                @ @ ",
"                E+F+E+G+H+I+J+K+L+M+N+O+  >                                                       { P+Q+u.<.R+.                   ",
"                S+G.T+U+V+I+W+V H+` X+Y+~   - ;                                                     (+e '.Z+`+-                   ",
"                ;  @.@+@ .@@#@I+Z+$@O.    , @ ;                                                 ; ; %@J .+/+&@,                   ",
"                  , *@a =@-@%.;@>@,@- -   - ;                                                   ; 8 '@)@.+V !@,                   ",
"                -   t+`+W U+~@{@]@  , - r ; ; ,                                                   ~ ^@/@(@| }+-                   ",
"                  , =._@:@a+W <@                                                                  , [@/@}@1 |@;                   ",
"                -     ; /.1@T.@                                                                 , . 2@3@4@5@0 ,                   ",
"                ;     -   6@7@-                                                                 '   8@9@0@a@b@                    ",
"                8 , r ) , ; >                                                                   ; c@k.o.d@1 e@>                   ",
"                  .   ~   >   ,                                                                 + f@3@'.5@g@>+                    ",
"                r , -   ; , . ;                                                                 ; h@h i@Z+j@. ,                   ",
"                - ^ , {   r , ;                                                                 k@l@m@U+{@F.  {                   ",
"                , , + ;   ,   -                                                                 n@=+o@~+n@r.                      ",
"                                                                  - -     ;   , ,   -   -     p@/@1.d@q@p@  ~                     ",
"                                                                ; ;   @ ,   - , ; ; { ; ; . r@s@W.n+<.t@2.  ;                     ",
"                                                                , {     . { ;     - -   . -.u@g+v@q+w@x@-   y@-                   ",
"                                                                -   ;   -   , - ,   r z@A@d@i+B@C@a+D@,   ! .                     ",
"                                                                ,           {   - - { E@l F@I+G@C+H@I@r ,     !                   ",
"                                                                    - , !     ,   J@K@L@5+M@q+W N@Q O@,   ) - ;                   ",
"                                                                > ;   - {   P@Q@R@U+$..+S@/+a@T@U@- ,   , ; { ,                   ",
"                                                                  z@>+k@V@W@X@m .+Y@0@Z@;@`@E+2.-   8 > , . - ;                   ",
"                                                                ; {.a@ #1.W.%.%..#o@Z+C+&@[@,                                     ",
"                                                                , +#` @#}@##$#%#a@a+&#*#a.; I@                                    ",
"                                                                , =#H+M@-#;#[ >#,#'#)#;       .                                   ",
"                                                                ) >+X+X+!#~#{#]#+ - , , - -                                       ",
"                                                                    ~   > ^#    , ; /#      )                                     ",
"                                                                  , ;     - )   . -     .     -                                   ",
"                                                                - ;     P   ; ,             .                                     ",
"                                                                , ; - + - ,   ;     - >   , , ;                                   ",
"                                                                                                                                  ",
"                                                                                                                                  ",
"                                                                                                                                  ",
"                                                                                                                                  ",
"                                                                                                                                  "};
