/* XPM */
static char * Rotation_droite_bleu_65_61_xpm[] = {
"65 61 465 2",
"  	c #000D06",
". 	c #010C06",
"+ 	c #000B05",
"@ 	c #000A04",
"# 	c #000904",
"$ 	c #000803",
"% 	c #010703",
"& 	c #000602",
"* 	c #000604",
"= 	c #000501",
"- 	c #000403",
"; 	c #000302",
"> 	c #010300",
", 	c #010302",
"' 	c #000201",
") 	c #010101",
"! 	c #000000",
"~ 	c #000400",
"{ 	c #010602",
"] 	c #000702",
"^ 	c #030504",
"/ 	c #000603",
"( 	c #000606",
"_ 	c #000704",
": 	c #010504",
"< 	c #000601",
"[ 	c #000503",
"} 	c #020403",
"| 	c #030301",
"1 	c #000100",
"2 	c #000200",
"3 	c #000304",
"4 	c #020003",
"5 	c #000002",
"6 	c #020100",
"7 	c #010100",
"8 	c #010000",
"9 	c #010002",
"0 	c #010801",
"a 	c #010600",
"b 	c #000700",
"c 	c #000405",
"d 	c #020401",
"e 	c #000500",
"f 	c #010D1B",
"g 	c #031B3F",
"h 	c #03265E",
"i 	c #022D71",
"j 	c #02337F",
"k 	c #023682",
"l 	c #013581",
"m 	c #023586",
"n 	c #023177",
"o 	c #002961",
"p 	c #011E46",
"q 	c #011023",
"r 	c #000508",
"s 	c #030102",
"t 	c #000103",
"u 	c #000004",
"v 	c #000600",
"w 	c #000605",
"x 	c #010810",
"y 	c #001D41",
"z 	c #022F72",
"A 	c #023A8F",
"B 	c #033C95",
"C 	c #033E98",
"D 	c #063F99",
"E 	c #05409C",
"F 	c #05409E",
"G 	c #03409B",
"H 	c #043F9D",
"I 	c #013D95",
"J 	c #033A8D",
"K 	c #01317B",
"L 	c #002051",
"M 	c #010D1D",
"N 	c #010103",
"O 	c #030406",
"P 	c #020400",
"Q 	c #030502",
"R 	c #00080B",
"S 	c #021D4A",
"T 	c #013686",
"U 	c #023E96",
"V 	c #0741A5",
"W 	c #0647AD",
"X 	c #0649B2",
"Y 	c #0546AC",
"Z 	c #0645A6",
"` 	c #0544A5",
" .	c #0442A5",
"..	c #0544A3",
"+.	c #0445A3",
"@.	c #0646AA",
"#.	c #0748B0",
"$.	c #0746AD",
"%.	c #0742A0",
"&.	c #053E97",
"*.	c #023B94",
"=.	c #01388A",
"-.	c #01265D",
";.	c #010004",
">.	c #030000",
",.	c #020305",
"'.	c #001630",
").	c #03337F",
"!.	c #033F95",
"~.	c #05429F",
"{.	c #0745AC",
"].	c #054BAD",
"^.	c #03449E",
"/.	c #033B90",
"(.	c #053685",
"_.	c #033074",
":.	c #012F7A",
"<.	c #01337C",
"[.	c #043584",
"}.	c #033888",
"|.	c #013D93",
"1.	c #0444A5",
"2.	c #0647AB",
"3.	c #053E98",
"4.	c #043A90",
"5.	c #023785",
"6.	c #011F45",
"7.	c #020607",
"8.	c #012150",
"9.	c #043D96",
"0.	c #023F9A",
"a.	c #0846AD",
"b.	c #073F9E",
"c.	c #023787",
"d.	c #04327D",
"e.	c #042864",
"f.	c #011D45",
"g.	c #00132C",
"h.	c #010812",
"i.	c #00070F",
"j.	c #000A16",
"k.	c #001123",
"l.	c #001A3B",
"m.	c #01265A",
"n.	c #013076",
"o.	c #0541A1",
"p.	c #0445A9",
"q.	c #0443A2",
"r.	c #033C96",
"s.	c #023B8A",
"t.	c #022C68",
"u.	c #010619",
"v.	c #010506",
"w.	c #010609",
"x.	c #002A64",
"y.	c #0642A4",
"z.	c #074AB3",
"A.	c #04388C",
"B.	c #003174",
"C.	c #021E4D",
"D.	c #000D1A",
"E.	c #000300",
"F.	c #000301",
"G.	c #00060E",
"H.	c #00163B",
"I.	c #032C6C",
"J.	c #023E94",
"K.	c #0545A9",
"L.	c #0843A7",
"M.	c #044098",
"N.	c #023A91",
"O.	c #03337B",
"P.	c #030B20",
"Q.	c #010200",
"R.	c #845100",
"S.	c #B26E00",
"T.	c #00090A",
"U.	c #002B68",
"V.	c #013E99",
"W.	c #0842A5",
"X.	c #034099",
"Y.	c #043486",
"Z.	c #002151",
"`.	c #000B0F",
" +	c #020204",
".+	c #020202",
"++	c #000203",
"@+	c #000408",
"#+	c #01183A",
"$+	c #0444A6",
"%+	c #06419D",
"&+	c #013A91",
"*+	c #053581",
"=+	c #000E25",
"-+	c #1E0E00",
";+	c #6B3F00",
">+	c #012967",
",+	c #024097",
"'+	c #0548B3",
")+	c #013173",
"!+	c #00152C",
"~+	c #010914",
"{+	c #012C70",
"]+	c #0244A4",
"^+	c #0642A2",
"/+	c #04419C",
"(+	c #03317E",
"_+	c #03204C",
":+	c #063D98",
"<+	c #0743A3",
"[+	c #0548B0",
"}+	c #073A96",
"|+	c #012D6E",
"1+	c #000105",
"2+	c #032459",
"3+	c #0640A1",
"4+	c #043F9B",
"5+	c #023A8D",
"6+	c #000308",
"7+	c #010204",
"8+	c #020300",
"9+	c #001228",
"0+	c #043D94",
"a+	c #0440A0",
"b+	c #043D97",
"c+	c #000C15",
"d+	c #020200",
"e+	c #030002",
"f+	c #012258",
"g+	c #0241A0",
"h+	c #04419A",
"i+	c #063F98",
"j+	c #013A8B",
"k+	c #042050",
"l+	c #5B3300",
"m+	c #000807",
"n+	c #043079",
"o+	c #003F9C",
"p+	c #074AB2",
"q+	c #02419E",
"r+	c #023179",
"s+	c #000C19",
"t+	c #000404",
"u+	c #032C6A",
"v+	c #053B93",
"w+	c #020D21",
"x+	c #835001",
"y+	c #001C43",
"z+	c #0646A8",
"A+	c #00142F",
"B+	c #00050B",
"C+	c #033685",
"D+	c #01409F",
"E+	c #05429B",
"F+	c #013C8C",
"G+	c #042866",
"H+	c #020001",
"I+	c #A56600",
"J+	c #01060C",
"K+	c #01327F",
"L+	c #0549AE",
"M+	c #05398F",
"N+	c #00255A",
"O+	c #053FA0",
"P+	c #043C8F",
"Q+	c #043786",
"R+	c #000F26",
"S+	c #C37900",
"T+	c #001735",
"U+	c #0846A9",
"V+	c #01327E",
"W+	c #000D16",
"X+	c #032C6E",
"Y+	c #03378B",
"Z+	c #02255D",
"`+	c #311C01",
" @	c #D18400",
".@	c #022A68",
"+@	c #022255",
"@@	c #01132B",
"#@	c #053A8A",
"$@	c #000815",
"%@	c #613900",
"&@	c #CB8200",
"*@	c #003581",
"=@	c #030208",
"-@	c #013275",
";@	c #03357C",
">@	c #041435",
",@	c #824F00",
"'@	c #C68100",
")@	c #03142E",
"!@	c #023B92",
"~@	c #0644A7",
"{@	c #022B6D",
"]@	c #000609",
"^@	c #000205",
"/@	c #01204E",
"(@	c #063A8E",
"_@	c #002154",
":@	c #9F6100",
"<@	c #C07C01",
"[@	c #00204D",
"}@	c #022150",
"|@	c #020A1F",
"1@	c #013682",
"2@	c #03378A",
"3@	c #063583",
"4@	c #032D69",
"5@	c #C07800",
"6@	c #BB7600",
"7@	c #00265D",
"8@	c #023689",
"9@	c #011838",
"0@	c #000F23",
"a@	c #001D49",
"b@	c #011A42",
"c@	c #041F4E",
"d@	c #02327C",
"e@	c #001B46",
"f@	c #031B41",
"g@	c #001B43",
"h@	c #011B40",
"i@	c #4E2C00",
"j@	c #BA7702",
"k@	c #053C97",
"l@	c #0545A7",
"m@	c #001027",
"n@	c #020818",
"o@	c #043582",
"p@	c #063585",
"q@	c #05388B",
"r@	c #02398B",
"s@	c #043381",
"t@	c #033480",
"u@	c #00347F",
"v@	c #01193F",
"w@	c #1B0A02",
"x@	c #855000",
"y@	c #B77900",
"z@	c #A06200",
"A@	c #043175",
"B@	c #000B1D",
"C@	c #010A1B",
"D@	c #023584",
"E@	c #06398C",
"F@	c #063D90",
"G@	c #053B91",
"H@	c #063B8B",
"I@	c #063786",
"J@	c #021D48",
"K@	c #704300",
"L@	c #B97303",
"M@	c #B87200",
"N@	c #B67300",
"O@	c #023175",
"P@	c #0745A8",
"Q@	c #013684",
"R@	c #000102",
"S@	c #023378",
"T@	c #043C89",
"U@	c #083A8F",
"V@	c #043987",
"W@	c #003070",
"X@	c #000E21",
"Y@	c #001333",
"Z@	c #033280",
"`@	c #053683",
" #	c #033886",
".#	c #033483",
"+#	c #022662",
"@#	c #000407",
"##	c #043C93",
"$#	c #0547A8",
"%#	c #021B43",
"&#	c #043480",
"*#	c #022E6B",
"=#	c #000612",
"-#	c #063A90",
";#	c #03398F",
">#	c #041839",
",#	c #012255",
"'#	c #002F75",
")#	c #000B1B",
"!#	c #011E4A",
"~#	c #012353",
"{#	c #00030A",
"]#	c #010C1E",
"^#	c #01122E",
"/#	c #00388B",
"(#	c #022F73",
"_#	c #010207",
":#	c #043C91",
"<#	c #02398C",
"[#	c #042663",
"}#	c #01245A",
"|#	c #001430",
"1#	c #033689",
"2#	c #063E9B",
"3#	c #002F73",
"4#	c #04419E",
"5#	c #022664",
"6#	c #04183B",
"7#	c #003885",
"8#	c #053D94",
"9#	c #0443A4",
"0#	c #011432",
"a#	c #000207",
"b#	c #05409A",
"c#	c #0342A1",
"d#	c #000918",
"e#	c #0342A3",
"f#	c #013483",
"g#	c #000813",
"h#	c #011E48",
"i#	c #07409A",
"j#	c #04327F",
"k#	c #002458",
"l#	c #033B8E",
"m#	c #03409D",
"n#	c #001331",
"o#	c #063A8D",
"p#	c #063C94",
"q#	c #002355",
"r#	c #010713",
"s#	c #000306",
"t#	c #04368B",
"u#	c #043B8D",
"v#	c #07378B",
"w#	c #02327A",
"x#	c #001F4B",
"y#	c #030B16",
"z#	c #000106",
"A#	c #031C45",
"B#	c #02347D",
"C#	c #022964",
"D#	c #011D44",
"E#	c #00112B",
"F#	c #00070D",
"G#	c #00122A",
"H#	c #032B69",
"I#	c #073887",
"J#	c #043989",
"K#	c #043383",
"L#	c #03357E",
"M#	c #02347B",
"N#	c #032F76",
"O#	c #00080F",
"P#	c #020006",
"Q#	c #011841",
"R#	c #022D72",
"S#	c #033B88",
"T#	c #01050E",
"U#	c #021637",
"V#	c #012861",
"W#	c #003480",
"X#	c #000B19",
"Y#	c #021533",
"Z#	c #031F4F",
"`#	c #022A67",
" $	c #012E71",
".$	c #022E6F",
"+$	c #00070C",
"@$	c #020005",
"#$	c #040001",
"  . + + @ # # # $ $ $ $ $ % % % & % % * * * & & = = - - - ; = = > > > , , ' ' ' ' ' ' ' ' ' ' ) ! ! ! ! ! ! ! ! ! ! ! ! ! ! ! ! ! ",
"+ + @ # # # # # $ $ $ $ $ % % % % & & * * * & & = = - - - - ~ = > > , , , ' ' ' ' ' ' ' ' ' ) ) ! ! ! ! ! ! ! ! ! ! ! ! ! ! ! ! ! ",
"# # # # $ $ $ $ $ $ $ % % % % % % & & * & & & = = = - - - - ~ ~ > , , ' ' ' ' ' ' ' ' ' ' ) ) ) ! ! ! ! ! ! ! ! ! ! ! ! ! ! ! ! ! ",
"$ $ $ $ $ $ % % % % % % % % & & * * * & & { = = = = - - - - ~ > , , ' ' ' ' ' ' ' ' ' ' ) ) ) ! ! ! ! ! ! ! ! ! ! ! ! ! ! ! ! ! ! ",
"$ $ $ $ $ $ % % % % & & & & & & * * & & = = = = - - ~ ~ ~ > , , , , ' ' ' ' ' ' ' ' ' ) ) ) ! ! ! ! ! ! ! ! ! ! ! ! ! ! ! ! ! ! ! ",
"$ $ $ % % & & & & & & & & & & & * * & { = = = = - - ~ ~ > > , , ' ' ' ' ' ' ' ' ' ' ) ) ) ) ! ! ! ! ! ! ! ! ! ! ! ! ! ! ! ! ! ! ! ",
"] & % % % % % & & & & & & & & & & & & = = = - - ; - ~ ~ > > , , ' ' ' ' ' ' ' ' ' ) ! ) ) ) ! ! ! ! ! ! ! ! ! ! ! ! ! ! ! ! ! ! ! ",
"& & & % % & & & & & & & & & & & & & = = = = - ; ; ; = > > > , , ' ' ' ' ' ' ' ' ) ! ! ) ) ) ! ! ! ! ! ! ! ! ! ! ! ! ! ! ! ! ! ! ! ",
"& & & & & & & & ^ / ( & _ : & & < [ ~ - ^ > } ; , ; ~ ; ; , | ' , 1 2 ' 3 ' ' 4 5 6 1 ) 7 1 5 ! ! ! ! ! ! ! ! ! 8 1 9 ! 8 ! 8 ! ! ",
"& & & & & & & & / 0 a b & : c d d ~ { * e = d c f g h i j k l m j n o p q r ' ' ! 1 s 1 ! ! 5 1 ! ! ! ! ! ! ! ! 9 1 ! t 5 5 5 u ! ",
"& & & & & & & & ( & [ { : v [ w [ } } [ } x y z A B C D E F E G H C I B J K L M 8 1 ) 7 5 1 2 9 ! ! ! ! ! ! ! ! ! t 8 2 ! N 1 1 ! ",
"& & & & & & & & { v O { < = - P Q ; - R S T U E V W X Y Z `  ...+.@.#.$.%.&.*.=.-.f ' 2 8 8 8 u ! ! ! ! ! ! ! ! ;.1 u >.5 2 8 8 ! ",
"& & & & & & = = = = ,.= & P [ [ ~ [ '.).!.~.{.].^./.(.k j n _.:.<.[.}.|.1.2.` 3.4.5.6.3 5 ! ! ! ! ! ! ! ! ! ! ! ! ! ! ) 5 ! ! ! ! ",
"= = = = = = = = a * = [ } , * > 7.8.9.0.a.#.b.c.d.e.f.g.M h.i.i.j.k.l.m.n.4.o.p.q.r.s.t.u.5 ! 9 ! ! ! ! ! ! ! ! 1 ! 5 ! 1 ) ! ! ! ",
"= = = = = = = = } - [ ,.d v.7 w.x.3.y.z.1.A.B.C.D.3 7 ; E.2 3 ' N F.t 8 G.H.I.J.K.L.M.N.O.P.1 8 ! ! ! ! ! ! ! ! 8 1 >.Q.>.5 ' R.S.",
"= = = = = = = = } - < P ; ; T.U.V.W.#.X.Y.Z.`.) ' 7 7 t  +.+' > 2 2 N 1 ++8 @+#+5.$+` %+&+*+=+5 ! ! ! ! ! ! ! ! 1 ! ' ! 5 ) 8 -+;+",
"- - - - - ; ; ; = = ~ = ; } >+,+` '+&.)+!+, N 2 ' ' ' ' ' ' ' ' ) ) ' ' ' ' ' ' ~+{+]+^+/+4.(+~+! ! 8 ! 8 ! 1 8 ;.1 9 ! ) 1 >.8 ! ",
"- - - - ; ; ; ; 3 ~ , E.> _+:+<+[+}+|+D.t ) ' > ' ' ' ' ' ' ' ' ) ) ' ' ' ' ' ' 5 1+2+o.3+4+5+|+6+5 1 ' 5 5 8 1 8 1 8 ) 8 ! ) 5 ! ",
"; ; ; ; ; ; ; ; ~ 7+8+, 9+0+a+X b+|+c+> d+t , ' ' ' ' ' ' ' ' ' ' ' ) ) ) ) ) ) ! e+N f+g+h+i+j+k+8 1 ;.! ' ! 1 ! 1 8 ! 8 8 1 1 l+",
"> > > > > > > > > > ; m+n+o+p+q+r+s+2 t+) E.7+' ' ' ' ' ' ' ' ) ' ' ) ) ) ! ! ! 1 1 ! 1 u+a+o.v+=.w+! 8 1 N ! 8 1 ! 8 ! 7 5 8 ! x+",
"~ ~ ~ ~ ~ ~ ~ ~  +~ , y+b+z+Z m A+t d+ +~ 2 2 t ' ' ' ' ' ) ) ) ' ' ) ) ! ! ! ! ! ! ' u B+C+D+E+F+G+t 2 1 8 4 ! 1 8 ) ! 1 ! H+5 I+",
", , , , , , , , ; ~ J+K+%+L+M+N+' .+t ' > 1  +) ' ' ' ' ) ) ) ) ' ' ) ! ! ! ! ! 5 1 H+! ! A+O+~.P+Q+R+! 8 8 ! 1 ! ! ! ! N 7 ! 8 S+",
", , , , , , , , E.2 T+B U+F V+W+N ' 1 , 2 N 2 , ' ' ' ' ) ) ) ) ' ' ) ! ! ! ! ! 8 1 ! ! 1 8 X+` 4+Y+Z+N 8 N 1 1 ! ! ! ! 5 ! 1 `+ @",
"' ' ' ' ' ' ' ' ) 7 .@C L+5++@) 2 , > 2 7+) 1 t ' ' ' ) ) ) ) ) ' ' ) ! ! ! ! ! 5 1 1 9 5 9 @@0.o.#@<.$@E.! 8 8 ! 1 8 ! ! ! 8 %@&@",
"' ' ' ' ' ' ' ' ' x }.O+Z *@q > ' ' ' ' ' ' ' ) ) ) ! ! ! ) ) 7 ! ! ! ! ! ! ! ! 5 8 9 ! ! ! =@-@b.v+;@>@1 ! 9 ! 8 1 ! 8 ) ! 5 ,@'@",
"' ' ' ' ' ' ' ' t )@!@~@3.{@]@' ' ' ' ' ' ' ) ! ) ) ) ) ) ) ! ! ! ! ! ! ! ! ! ! 9 ' 1 1 8 ^@1 /@/.(@(._@! ! u ! 5 ! 1 ) u ! ! :@<@",
"' ' ' ' ' ' ' ' 7 [@|.2.A.}@! t ' ' ' ' ' ) ! ! 1 ' ) ) ) ! ! ! ! ! ! ! ! ! ! ! ! 1 ! N ! 1 N |@1@2@3@4@5 ! ! 8 1 8 t 8 ! 1 ! 5@6@",
"' ' ' ' ' ' ' ' d+7@0+2.8@9@N ' ' ' ' ' ) ) ) ) ' ' ' ) ! ! ! ! ! ! ! ! ! ! ! ! ! 1 ;.8 0@a@b@c@d@C+3@r+e@f@g@h@! 8 8 5 ) ! i@j@S.",
"' ' ' ' ' ' ' ' 5 u+k@l@C+m@' 7 ' ' ' ) ) ) ) ) ' ' ! ! ! ! ! ! ! ! ! ! ! ! ! ! ) 5 ! 1 n@n o@l p@q@r@m s@t@u@v@9 ! 8 ! 1 w@x@y@z@",
"' ' ' ' ' ' ' ' 1 A@9.l@k B@1 ) ' ' ) ) ) ) ) ) ) ! ! ! ! ! ! ! ! ! ! ! ! ! ! ! 1 8 1 8 ! C@n.D@E@F@G@H@I@j J@8 1 5 1 9 K@L@M@N@N@",
") ) ) ) ) ) ) ) ! O@0+P@Q@M ) ! ' ) ) ) ! ! ! ! ! ! ! ! ! ! ! ! ! ! ! ! ! ! ! ! ) >.R@1 ) ! R+S@D@T@U@V@t@+@u 5 >.8 ! >.1 5 7 >.! ",
"! ! ! ! ! ! ! ! N W@k@Z 5.X@7 7 ) ) ) ! ! ! ! ! ! ! ! ! ! ! ! ! ! ! ! ! ! ! ! ! 1 ! 5 ! ! 8 ) Y@Z@`@ #.#+#@#1 8 ! ! R@! ! 1 e+5 ! ",
") ) ) ) ) ) ) ) 1 I.##$#}.m@.+2 ! ! ! ! ! ! ! ! ! ! ! ! ! ! ! ! ! ! ! ! ! ! ! ! ! ! ! ! ! ! ! ! %#&#l *#=#;.1 ! ! ! ! ! ! ! ! ! ! ",
") ) ) ) ) ) ) ) 2 Z+-#$.;#>#! 5 ! ! ! ! ! ! ! ! ! ! ! ! ! ! ! ! ! ! ! ! ! ! ! ! ! ! ! ! ! ! ! ! ' ,#'#)#8 ! ! 5 ! ! ! ! ! ! ! ! ! ",
"! ! ! ! ! ! ! ! N !#5+P@9.~#9 9 ! ! ! ! ! ! ! ! ! ! ! ! ! ! ! ! ! ! ! ! ! ! ! ! ! ! ! ! ! ! ! ! 5 {#]#! 5 ! ! 8 ! ! ! ! ! ! ! ! ! ",
"! ! ! ! ! ! ! ! 8 ^#/#E q.(#_#8 ! ! ! ! ! ! ! ! ! ! ! ! ! ! ! ! ! ! ! ! ! ! ! ! ! ! ! ! ! ! ! ! ! 9 8 1 4 >.1 u ! ! ! ! ! ! ! ! ! ",
"! ! ! ! ! ! ! ! ! i.s@:#z+<#0@5 ! ! ! ! ! ! ! ! ! ! ! ! ! ! ! ! ! ! ! ! ! ! ! ! ! ! ! ! ! ! ! ! 1 ! 9 ! 2 ! ) ! ! ! ! ! ! ! ! ! ! ",
"! ! ! ! ! ! ! ! 5 1 [#4.../+}#8 ! ! ! ! ! ! ! ! ! ! ! ! ! ! ! ! ! ! ! ! ! ! ! ! ! ! ! ! ! ! ! ! 8 ) 1 8 ! 5 1 >.! ! ! ! ! ! ! ! ! ",
"! ! ! ! ! ! ! ! ! 1 |#1#2#q.1#)#! ! ! ! ! ! ! ! ! ! ! ! ! ! ! ! ! ! ! ! ! ! ! ! ! ! ! ! ! ! ! ! 8 1 >.! N 1 H+5 ! ! ! ! ! ! ! ! ! ",
"! ! ! ! ! ! ! ! 5 >.r 3#(@%.4#5#! ! ! ! ! ! ! ! ! ! ! ! ! ! ! ! ! ! ! ! ! ! ! ! ! ! ! ! ! ! ! ! 5 ! 1 ! 8 t 1 1 ! ! ! ! ! ! ! ! ! ",
"! ! ! ! ! ! ! ! 1 ;.8 6#7#8#9#C 0#5 ! 5 1 1 >.! 5 9 8 ! 1 ! ! ! ! ! ! ! ! ! ! ! ! ! ! ! ! ! ! ! ! ! ! ! ! ! ! ! ! ! ! ! ! ! ! ! ! ",
"! ! ! ! ! ! ! ! 5 ! 7 a#X+=.b#c#<#d#H+8 8 9 ! 1 2 ! ! ! ! ! ! ! ! ! ! ! ! ! ! ! ! ! ! ! ! ! ! ! ! ! ! ! ! ! ! ! ! ! ! ! ! ! ! ! ! ",
"! ! ! ! ! ! ! ! 1 5 ! 8 R+l E@E e#f#g#' 8 5 1 ! ! ! N 5 5 ! ) 1 ! ! ! ! ! ! ! ! ! ! ! ! ! ! ! ! ! ! ! ! ! ! ! ! ! ! ! ! ! ! ! ! ! ",
"! ! ! ! ! ! ! ! 8 5 ! 5 ! h#D@;#i#q.j#j.R@H+H+! ! ! ! ! ! 8 8 ! ! ! ! ! ! ! ! ! ! ! ! ! ! ! ! ! ! ! ! ! ! ! ! ! ! ! ! ! ! ! ! ! ! ",
"! ! ! ! ! ! ! ! 8 4 ! 2 >.^@k#5.l#2#m#o@n#9 5 ! 8 H+! 1 ! ! ! ! ! ! ! ! ! ! ! ! ! ! ! ! ! ! ! ! ! ! ! ! ! ! ! ! ! ! ! ! ! ! ! ! ! ",
"! ! ! ! ! ! ! ! ! ! N ! 5 4 ; }#D@o#p#&.r@q#r#5 t ! 1 ! 5 ! ! 1 ! ! ! ! ! ! ! ! ! ! ! ! ! ! ! ! ! ! ! ! ! ! ! ! ! ! ! ! ! ! ! ! ! ",
"! ! ! ! ! ! ! ! ' 5 ! ' 8 5 t s#N+l t#8#u#v#w#x#y#z#! 8 8 ! ! ! ! ! ! ! ! ! ! ! ! ! ! ! ! ! ! ! ! ! ! ! ! ! ! ! ! ! ! ! ! ! ! ! ! ",
"! ! ! ! ! ! ! ! 9 5 6 1 8 ! ! e+7+A#B#D@q@E@Q+D@j C#D#E#)#F#t ! ! ! ! ! ! ! ! ! ! ! ! ! ! ! ! ! ! ! ! ! ! ! ! ! ! ! ! ! ! ! ! ! ! ",
"! ! ! ! ! ! ! ! ! ! ! ! ! ! ! ! 8 1 G#H#l k I#J#`@[.K#L#M#N#O#! ! ! ! ! ! ! ! ! ! ! ! ! ! ! ! ! ! ! ! ! ! ! ! ! ! ! ! ! ! ! ! ! ! ",
"! ! ! ! ! ! ! ! ! ! ! ! ! ! ! ! ! P#8 B+Q#R#k .# #S#E@V@(.:.=#1 ! ! ! ! ! ! ! ! ! ! ! ! ! ! ! ! ! ! ! ! ! ! ! ! ! ! ! ! ! ! ! ! ! ",
"! ! ! ! ! ! ! ! ! ! ! ! ! ! ! ! 1 5 5 ! ! T#U#V#&#W#*+D@o@d@h.! ! ! ! ! ! ! ! ! ! ! ! ! ! ! ! ! ! ! ! ! ! ! ! ! ! ! ! ! ! ! ! ! ! ",
"! ! ! ! ! ! ! ! ! ! ! ! ! ! ! ! ! 8 9 5 1 1 5 t X#Y#Z#`# $.$+$@$! ! ! ! ! ! ! ! ! ! ! ! ! ! ! ! ! ! ! ! ! ! ! ! ! ! ! ! ! ! ! ! ! ",
"! ! ! ! ! ! ! ! ! ! ! ! ! ! ! ! ! ) ! ! 8 #$8 1 ! 1 ) 9 8 1 N ! ! ! ! ! ! ! ! ! ! ! ! ! ! ! ! ! ! ! ! ! ! ! ! ! ! ! ! ! ! ! ! ! ! ",
"! ! ! ! ! ! ! ! ! ! ! ! ! ! ! ! 5 1 1 N ! 1 5 8 ! ) 5 ! ! 8 1 9 ! ! ! ! ! ! ! ! ! ! ! ! ! ! ! ! ! ! ! ! ! ! ! ! ! ! ! ! ! ! ! ! ! ",
"! ! ! ! ! ! ! ! ! ! ! ! ! ! ! ! ! ! ! ! ! ) ! ! ' ! 1 8 ! 5 2 ! ! ! ! ! ! ! ! ! ! ! ! ! ! ! ! ! ! ! ! ! ! ! ! ! ! ! ! ! ! ! ! ! ! ",
"! ! ! ! ! ! ! ! ! ! ! ! ! ! ! ! 8 ! ! ! ! ! ) ! 9 ! 1 5 H+! H+! ! ! ! ! ! ! ! ! ! ! ! ! ! ! ! ! ! ! ! ! ! ! ! ! ! ! ! ! ! ! ! ! ! ",
"! ! ! ! ! ! ! ! ! ! ! ! ! ! ! ! ! ! ! ! ! ! ! ! ! ! ! ! ! ! ! ! ! ! ! ! ! ! ! ! ! ! ! ! ! ! ! ! ! ! ! ! ! ! ! ! ! ! ! ! ! ! ! ! ! ",
"! ! ! ! ! ! ! ! ! ! ! ! ! ! ! ! ! ! ! ! ! ! ! ! ! ! ! ! ! ! ! ! ! ! ! ! ! ! ! ! ! ! ! ! ! ! ! ! ! ! ! ! ! ! ! ! ! ! ! ! ! ! ! ! ! ",
"! ! ! ! ! ! ! ! ! ! ! ! ! ! ! ! ! ! ! ! ! ! ! ! ! ! ! ! ! ! ! ! ! ! ! ! ! ! ! ! ! ! ! ! ! ! ! ! ! ! ! ! ! ! ! ! ! ! ! ! ! ! ! ! ! ",
"! ! ! ! ! ! ! ! ! ! ! ! ! ! ! ! ! ! ! ! ! ! ! ! ! ! ! ! ! ! ! ! ! ! ! ! ! ! ! ! ! ! ! ! ! ! ! ! ! ! ! ! ! ! ! ! ! ! ! ! ! ! ! ! ! ",
"! ! ! ! ! ! ! ! ! ! ! ! ! ! ! ! ! ! ! ! ! ! ! ! ! ! ! ! ! ! ! ! ! ! ! ! ! ! ! ! ! ! ! ! ! ! ! ! ! ! ! ! ! ! ! ! ! ! ! ! ! ! ! ! ! "};
