/* XPM */
static char *_e5d2e55e70a4140d7fcafd8ee00c833SB7d0ProAC7jA7WI[] = {
/* columns rows colors chars-per-pixel */
"100 100 2 1 ",
"  c #3F48CC",
". c #5487FF",
/* pixels */
"    ....    ....    ....    ....    ....    ....    ....    ....    ....    ....    ....    ....    ",
"    ....    ....    ....    ....    ....    ....    ....    ....    ....    ....    ....    ....    ",
"    ....    ....    ....    ....    ....    ....    ....    ....    ....    ....    ....    ....    ",
"    ....    ....    ....    ....    ....    ....    ....    ....    ....    ....    ....    ....    ",
"....    ....    ....    ....    ....    ....    ....    ....    ....    ....    ....    ....    ....",
"....    ....    ....    ....    ....    ....    ....    ....    ....    ....    ....    ....    ....",
"....    ....    ....    ....    ....    ....    ....    ....    ....    ....    ....    ....    ....",
"....    ....    ....    ....    ....    ....    ....    ....    ....    ....    ....    ....    ....",
"    ....    ....    ....    ....    ....    ....    ....    ....    ....    ....    ....    ....    ",
"    ....    ....    ....    ....    ....    ....    ....    ....    ....    ....    ....    ....    ",
"    ....    ....    ....    ....    ....    ....    ....    ....    ....    ....    ....    ....    ",
"    ....    ....    ....    ....    ....    ....    ....    ....    ....    ....    ....    ....    ",
"....    ....    ....    ....    ....    ....    ....    ....    ....    ....    ....    ....    ....",
"....    ....    ....    ....    ....    ....    ....    ....    ....    ....    ....    ....    ....",
"....    ....    ....    ....    ....    ....    ....    ....    ....    ....    ....    ....    ....",
"....    ....    ....    ....    ....    ....    ....    ....    ....    ....    ....    ....    ....",
"    ....    ....    ....    ....    ....    ....    ....    ....    ....    ....    ....    ....    ",
"    ....    ....    ....    ....    ....    ....    ....    ....    ....    ....    ....    ....    ",
"    ....    ....    ....    ....    ....    ....    ....    ....    ....    ....    ....    ....    ",
"    ....    ....    ....    ....    ....    ....    ....    ....    ....    ....    ....    ....    ",
"....    ....    ....    ....    ....    ....    ....    ....    ....    ....    ....    ....    ....",
"....    ....    ....    ....    ....    ....    ....    ....    ....    ....    ....    ....    ....",
"....    ....    ....    ....    ....    ....    ....    ....    ....    ....    ....    ....    ....",
"....    ....    ....    ....    ....    ....    ....    ....    ....    ....    ....    ....    ....",
"    ....    ....    ....    ....    ....    ....    ....    ....    ....    ....    ....    ....    ",
"    ....    ....    ....    ....    ....    ....    ....    ....    ....    ....    ....    ....    ",
"    ....    ....    ....    ....    ....    ....    ....    ....    ....    ....    ....    ....    ",
"    ....    ....    ....    ....    ....    ....    ....    ....    ....    ....    ....    ....    ",
"....    ....    ....    ....    ....    ....    ....    ....    ....    ....    ....    ....    ....",
"....    ....    ....    ....    ....    ....    ....    ....    ....    ....    ....    ....    ....",
"....    ....    ....    ....    ....    ....    ....    ....    ....    ....    ....    ....    ....",
"....    ....    ....    ....    ....    ....    ....    ....    ....    ....    ....    ....    ....",
"    ....    ....    ....    ....    ....    ....    ....    ....    ....    ....    ....    ....    ",
"    ....    ....    ....    ....    ....    ....    ....    ....    ....    ....    ....    ....    ",
"    ....    ....    ....    ....    ....    ....    ....    ....    ....    ....    ....    ....    ",
"    ....    ....    ....    ....    ....    ....    ....    ....    ....    ....    ....    ....    ",
"....    ....    ....    ....    ....    ....    ....    ....    ....    ....    ....    ....    ....",
"....    ....    ....    ....    ....    ....    ....    ....    ....    ....    ....    ....    ....",
"....    ....    ....    ....    ....    ....    ....    ....    ....    ....    ....    ....    ....",
"....    ....    ....    ....    ....    ....    ....    ....    ....    ....    ....    ....    ....",
"    ....    ....    ....    ....    ....    ....    ....    ....    ....    ....    ....    ....    ",
"    ....    ....    ....    ....    ....    ....    ....    ....    ....    ....    ....    ....    ",
"    ....    ....    ....    ....    ....    ....    ....    ....    ....    ....    ....    ....    ",
"    ....    ....    ....    ....    ....    ....    ....    ....    ....    ....    ....    ....    ",
"....    ....    ....    ....    ....    ....    ....    ....    ....    ....    ....    ....    ....",
"....    ....    ....    ....    ....    ....    ....    ....    ....    ....    ....    ....    ....",
"....    ....    ....    ....    ....    ....    ....    ....    ....    ....    ....    ....    ....",
"....    ....    ....    ....    ....    ....    ....    ....    ....    ....    ....    ....    ....",
"    ....    ....    ....    ....    ....    ....    ....    ....    ....    ....    ....    ....    ",
"    ....    ....    ....    ....    ....    ....    ....    ....    ....    ....    ....    ....    ",
"    ....    ....    ....    ....    ....    ....    ....    ....    ....    ....    ....    ....    ",
"    ....    ....    ....    ....    ....    ....    ....    ....    ....    ....    ....    ....    ",
"....    ....    ....    ....    ....    ....    ....    ....    ....    ....    ....    ....    ....",
"....    ....    ....    ....    ....    ....    ....    ....    ....    ....    ....    ....    ....",
"....    ....    ....    ....    ....    ....    ....    ....    ....    ....    ....    ....    ....",
"....    ....    ....    ....    ....    ....    ....    ....    ....    ....    ....    ....    ....",
"    ....    ....    ....    ....    ....    ....    ....    ....    ....    ....    ....    ....    ",
"    ....    ....    ....    ....    ....    ....    ....    ....    ....    ....    ....    ....    ",
"    ....    ....    ....    ....    ....    ....    ....    ....    ....    ....    ....    ....    ",
"    ....    ....    ....    ....    ....    ....    ....    ....    ....    ....    ....    ....    ",
"....    ....    ....    ....    ....    ....    ....    ....    ....    ....    ....    ....    ....",
"....    ....    ....    ....    ....    ....    ....    ....    ....    ....    ....    ....    ....",
"....    ....    ....    ....    ....    ....    ....    ....    ....    ....    ....    ....    ....",
"....    ....    ....    ....    ....    ....    ....    ....    ....    ....    ....    ....    ....",
"    ....    ....    ....    ....    ....    ....    ....    ....    ....    ....    ....    ....    ",
"    ....    ....    ....    ....    ....    ....    ....    ....    ....    ....    ....    ....    ",
"    ....    ....    ....    ....    ....    ....    ....    ....    ....    ....    ....    ....    ",
"    ....    ....    ....    ....    ....    ....    ....    ....    ....    ....    ....    ....    ",
"....    ....    ....    ....    ....    ....    ....    ....    ....    ....    ....    ....    ....",
"....    ....    ....    ....    ....    ....    ....    ....    ....    ....    ....    ....    ....",
"....    ....    ....    ....    ....    ....    ....    ....    ....    ....    ....    ....    ....",
"....    ....    ....    ....    ....    ....    ....    ....    ....    ....    ....    ....    ....",
"    ....    ....    ....    ....    ....    ....    ....    ....    ....    ....    ....    ....    ",
"    ....    ....    ....    ....    ....    ....    ....    ....    ....    ....    ....    ....    ",
"    ....    ....    ....    ....    ....    ....    ....    ....    ....    ....    ....    ....    ",
"    ....    ....    ....    ....    ....    ....    ....    ....    ....    ....    ....    ....    ",
"....    ....    ....    ....    ....    ....    ....    ....    ....    ....    ....    ....    ....",
"....    ....    ....    ....    ....    ....    ....    ....    ....    ....    ....    ....    ....",
"....    ....    ....    ....    ....    ....    ....    ....    ....    ....    ....    ....    ....",
"....    ....    ....    ....    ....    ....    ....    ....    ....    ....    ....    ....    ....",
"    ....    ....    ....    ....    ....    ....    ....    ....    ....    ....    ....    ....    ",
"    ....    ....    ....    ....    ....    ....    ....    ....    ....    ....    ....    ....    ",
"    ....    ....    ....    ....    ....    ....    ....    ....    ....    ....    ....    ....    ",
"    ....    ....    ....    ....    ....    ....    ....    ....    ....    ....    ....    ....    ",
"....    ....    ....    ....    ....    ....    ....    ....    ....    ....    ....    ....    ....",
"....    ....    ....    ....    ....    ....    ....    ....    ....    ....    ....    ....    ....",
"....    ....    ....    ....    ....    ....    ....    ....    ....    ....    ....    ....    ....",
"....    ....    ....    ....    ....    ....    ....    ....    ....    ....    ....    ....    ....",
"    ....    ....    ....    ....    ....    ....    ....    ....    ....    ....    ....    ....    ",
"    ....    ....    ....    ....    ....    ....    ....    ....    ....    ....    ....    ....    ",
"    ....    ....    ....    ....    ....    ....    ....    ....    ....    ....    ....    ....    ",
"    ....    ....    ....    ....    ....    ....    ....    ....    ....    ....    ....    ....    ",
"....    ....    ....    ....    ....    ....    ....    ....    ....    ....    ....    ....    ....",
"....    ....    ....    ....    ....    ....    ....    ....    ....    ....    ....    ....    ....",
"....    ....    ....    ....    ....    ....    ....    ....    ....    ....    ....    ....    ....",
"....    ....    ....    ....    ....    ....    ....    ....    ....    ....    ....    ....    ....",
"    ....    ....    ....    ....    ....    ....    ....    ....    ....    ....    ....    ....    ",
"    ....    ....    ....    ....    ....    ....    ....    ....    ....    ....    ....    ....    ",
"    ....    ....    ....    ....    ....    ....    ....    ....    ....    ....    ....    ....    ",
"    ....    ....    ....    ....    ....    ....    ....    ....    ....    ....    ....    ....    "
};
