/* XPM */
static char * wall_xpm[] = {
"10 10 33 1",
" 	c #C1C1C1",
".	c #E2E2E2",
"+	c #E8E8E8",
"@	c #A7A7A7",
"#	c #9A9A9A",
"$	c #B5B5B5",
"%	c #B6B6B6",
"&	c #C8C8C8",
"*	c #A5A5A5",
"=	c #999999",
"-	c #929292",
";	c #B9B9B9",
">	c #636363",
",	c #595959",
"'	c #5E5E5E",
")	c #6B6B6B",
"!	c #5F5F5F",
"~	c #DCDCDC",
"{	c #9E9E9E",
"]	c #DBDBDB",
"^	c #B7B7B7",
"/	c #CBCBCB",
"(	c #A1A1A1",
"_	c #959595",
":	c #949494",
"<	c #ABABAB",
"[	c #AAAAAA",
"}	c #BEBEBE",
"|	c #979797",
"1	c #8F8F8F",
"2	c #575757",
"3	c #4F4F4F",
"4	c #535353",
" .......+@",
"#$%%%%%%&*",
"=$$$$$$$&*",
"-@@@@@@@;=",
">>>>,'>>)!",
"~~~.{$]~~~",
"^%%/(_%%%%",
"%$$/(:$$$$",
"<[[}|1[[[[",
"222>342222"};
